<svg version="1.1" id="Layer_1" xmlns="http://www.w3.org/2000/svg" xmlns:xlink="http://www.w3.org/1999/xlink" x="0px" y="0px"
	 width="100%" viewBox="0 0 1640 924" enable-background="new 0 0 1640 924" xml:space="preserve">
<path fill="#FFFFFF" opacity="1.000000" stroke="none" 
	d="
M1074.000000,925.000000 
	C716.000000,925.000000 358.500000,925.000000 1.000000,925.000000 
	C1.000000,617.000000 1.000000,309.000000 1.000000,1.000000 
	C547.666687,1.000000 1094.333374,1.000000 1641.000000,1.000000 
	C1641.000000,309.000000 1641.000000,617.000000 1641.000000,925.000000 
	C1452.166626,925.000000 1263.333374,925.000000 1074.000000,925.000000 
M1384.319702,414.230927 
	C1390.255737,423.261383 1396.271729,432.240875 1402.087036,441.348450 
	C1404.277588,444.779144 1405.689819,444.970123 1408.016357,441.369019 
	C1417.491089,426.704468 1427.170410,412.171967 1436.791992,397.602356 
	C1440.914062,391.360535 1445.078613,385.146790 1449.223877,378.920288 
	C1449.590698,379.058105 1449.957520,379.195923 1450.324341,379.333740 
	C1450.324341,413.030182 1450.324341,446.726624 1450.324341,480.471008 
	C1462.922485,480.471008 1475.009033,480.471008 1487.277344,480.471008 
	C1487.277344,425.682373 1487.277344,371.150604 1487.277344,316.282379 
	C1475.135132,316.282379 1463.329346,316.394165 1451.528564,316.206299 
	C1448.455688,316.157379 1446.724243,317.213562 1445.166382,319.767029 
	C1436.506958,333.959900 1427.711426,348.069794 1418.929321,362.187378 
	C1414.520630,369.274719 1410.041382,376.318207 1405.351074,383.767517 
	C1404.192871,382.079010 1403.405029,381.019928 1402.709473,379.903381 
	C1391.984863,362.686829 1380.671997,345.797607 1370.801758,328.103851 
	C1365.618408,318.812103 1359.757812,314.708527 1349.007935,316.067719 
	C1340.542358,317.138092 1331.833252,316.282715 1323.239258,316.282715 
	C1323.239258,371.366211 1323.239258,425.793488 1323.239258,480.394257 
	C1335.640015,480.394257 1347.831421,480.394257 1360.537354,480.394257 
	C1360.537354,446.724823 1360.537354,413.384918 1360.537354,380.045044 
	C1360.851562,379.950958 1361.165771,379.856903 1361.479980,379.762817 
	C1368.975830,391.041565 1376.471680,402.320312 1384.319702,414.230927 
M1032.320801,434.761627 
	C1039.487061,420.132324 1041.621338,404.506409 1039.806396,388.599121 
	C1034.871826,345.351257 1000.745728,319.425751 962.610474,317.136444 
	C938.705994,315.701447 914.667236,316.500946 890.688599,316.317535 
	C890.228027,316.313995 889.765625,316.554047 889.199707,316.709015 
	C889.199707,371.303223 889.199707,425.833740 889.199707,480.725433 
	C891.129272,480.725433 892.763794,480.725403 894.398376,480.725403 
	C914.221497,480.725220 934.052185,481.074127 953.866150,480.647339 
	C988.077637,479.910461 1015.142700,466.374512 1032.320801,434.761627 
M1158.023193,457.462341 
	C1163.368042,465.132690 1170.337158,470.976562 1178.681641,475.039062 
	C1199.383301,485.117706 1221.032227,485.543976 1242.793091,479.813965 
	C1260.195068,475.231781 1273.137939,464.473358 1281.088379,448.108398 
	C1287.117676,435.697388 1288.808472,422.365082 1288.869385,408.801788 
	C1289.000244,379.652069 1288.913330,350.501343 1288.899292,321.351044 
	C1288.898438,319.757996 1288.748413,318.165009 1288.665161,316.521088 
	C1275.958130,316.521088 1263.698975,316.521088 1250.952881,316.521088 
	C1250.952881,318.526978 1250.952881,320.316223 1250.952881,322.105469 
	C1250.952759,350.922638 1250.993896,379.739899 1250.909424,408.556824 
	C1250.896362,413.037292 1250.674194,417.578918 1249.916016,421.983307 
	C1248.055542,432.789581 1242.789185,441.744812 1232.113037,445.344971 
	C1225.698975,447.507935 1218.375000,448.207916 1211.583984,447.745117 
	C1199.783569,446.940948 1190.658691,440.832306 1186.708862,429.314270 
	C1184.591919,423.141174 1183.301880,416.380585 1183.220947,409.865448 
	C1182.857544,380.553040 1183.060913,351.233643 1183.060059,321.916748 
	C1183.060059,320.149567 1183.060181,318.382385 1183.060181,316.657837 
	C1170.076538,316.657837 1157.692627,316.657837 1145.184814,316.657837 
	C1145.184814,350.172394 1144.792603,383.321075 1145.367188,416.453003 
	C1145.616211,430.813477 1149.041138,444.778259 1158.023193,457.462341 
M845.118347,431.305023 
	C829.134460,393.660889 813.183533,356.002563 797.039795,318.427124 
	C796.427063,317.000885 793.975159,315.566132 792.335632,315.513062 
	C783.511963,315.227386 774.668640,315.557770 765.843994,315.286987 
	C762.435364,315.182404 760.802124,316.221222 759.708557,319.450287 
	C758.226685,323.825958 756.121033,327.989410 754.301270,332.251709 
	C735.575867,376.111420 716.846680,419.969543 698.140747,463.837524 
	C695.831909,469.252075 693.651978,474.721619 691.182434,480.724518 
	C702.907227,480.724518 713.716797,480.469421 724.503784,480.850922 
	C728.777954,481.002075 730.570435,479.408722 731.991211,475.699127 
	C736.013367,465.197144 740.373169,454.824463 744.677063,444.210938 
	C766.326782,444.210938 787.809692,444.159302 809.290588,444.344788 
	C810.522278,444.355438 812.300842,446.058380 812.869934,447.383789 
	C817.052734,457.125641 821.098328,466.930725 824.942078,476.811249 
	C826.066833,479.702362 827.487488,480.933350 830.714233,480.802643 
	C837.203247,480.539795 843.710510,480.724518 850.210205,480.724518 
	C855.416565,480.724548 860.622925,480.724518 866.295959,480.724518 
	C859.137512,463.920166 852.329773,447.938934 845.118347,431.305023 
M440.873596,410.562714 
	C443.572754,411.375916 446.286438,412.144196 448.968536,413.010254 
	C459.824554,416.515594 470.740356,419.854462 481.491669,423.657501 
	C486.946259,425.586945 489.397491,429.989105 488.967407,435.871338 
	C488.536957,441.757904 485.121124,445.219574 479.851624,447.135651 
	C467.782166,451.524323 455.756378,450.015045 444.461761,445.135651 
	C435.133423,441.105621 426.543884,435.365448 417.265106,430.180908 
	C410.358765,438.462219 403.041840,447.235901 395.715088,456.021362 
	C396.340607,456.702545 396.637451,457.091644 396.997650,457.408722 
	C419.021149,476.795135 445.049316,484.512054 473.895325,482.797668 
	C486.238495,482.064056 497.875336,478.206390 508.191071,470.752563 
	C530.903137,454.341583 535.566833,409.482361 505.078888,393.626678 
	C494.879883,388.322571 483.548920,385.149750 472.640564,381.269318 
	C464.064484,378.218506 455.223999,375.888092 446.728302,372.642517 
	C441.312469,370.573517 439.325592,365.837738 439.802490,360.049622 
	C440.260406,354.492462 443.495056,350.661804 448.482574,349.763062 
	C454.880798,348.610107 461.652130,348.014893 468.067566,348.791504 
	C480.690002,350.319519 491.250214,357.252991 501.982391,364.127441 
	C508.565857,354.560211 515.016541,345.185913 521.412659,335.890991 
	C499.743103,315.468414 457.990479,308.131104 431.542389,319.598236 
	C398.459167,333.942230 397.209167,370.842682 408.487732,389.232361 
	C415.734039,401.047394 427.565155,406.292023 440.873596,410.562714 
M309.210602,326.711029 
	C317.882935,317.835022 326.555267,308.959045 335.171844,300.140106 
	C325.919708,290.993896 316.508667,281.690582 306.901398,272.193268 
	C267.850616,311.012054 228.326263,349.651459 189.620880,389.094513 
	C173.966309,405.047424 168.038406,425.410034 169.782272,447.807526 
	C171.218719,466.256653 178.532883,482.074707 191.037750,495.626862 
	C200.344925,505.713470 209.530258,515.912476 219.320328,526.666138 
	C228.536362,517.211060 237.365524,508.157166 246.182236,499.091125 
	C246.516052,498.747833 246.729340,498.287323 247.246155,497.508820 
	C238.549942,487.972015 229.814545,478.424133 221.114365,468.844238 
	C205.374252,451.512543 205.953644,429.109283 222.552750,412.646027 
	C251.268799,384.165070 279.989746,355.689056 309.210602,326.711029 
M296.071625,566.574097 
	C305.491669,557.167908 315.039093,547.885254 324.306976,538.331543 
	C348.468475,513.424683 353.829712,474.030060 334.873871,444.919098 
	C324.110718,428.389862 309.817780,414.159088 296.585144,398.257080 
	C291.093353,403.937256 286.519196,408.754486 281.847870,413.475494 
	C277.202545,418.170227 272.459534,422.768372 267.612091,427.554230 
	C276.775574,437.626465 285.660675,447.303986 294.447205,457.070221 
	C310.010223,474.368500 309.405090,496.546783 292.974426,512.829529 
	C256.557770,548.918396 220.130753,584.996765 183.716019,621.087524 
	C182.357437,622.434021 181.082443,623.864746 179.976212,625.036194 
	C189.675888,634.614014 198.996414,643.817444 208.561890,653.262756 
	C237.403961,624.661926 266.465179,595.843872 296.071625,566.574097 
M598.500183,316.282166 
	C580.380005,316.282166 562.259827,316.282166 543.972412,316.282166 
	C543.972412,328.247467 543.972412,339.792511 543.972412,351.681702 
	C560.429382,351.681702 576.523315,351.681702 593.010681,351.681702 
	C593.010681,394.773773 593.010681,437.519745 593.010681,480.464539 
	C605.808472,480.464539 618.205566,480.464539 631.169189,480.464539 
	C631.169189,437.359924 631.169189,394.515259 631.169189,351.308594 
	C647.827881,351.308594 663.920227,351.308594 680.127197,351.308594 
	C680.127197,339.519470 680.127197,328.100739 680.127197,316.282166 
	C653.070801,316.282166 626.285522,316.282166 598.500183,316.282166 
M1109.479980,431.500305 
	C1109.479980,393.250275 1109.479980,355.000244 1109.479980,316.520386 
	C1096.707153,316.520386 1084.472656,316.520386 1071.956299,316.520386 
	C1071.956299,371.239044 1071.956299,425.745972 1071.956299,480.487549 
	C1084.430786,480.487549 1096.670776,480.487549 1109.479858,480.487549 
	C1109.479858,464.376251 1109.479858,448.438293 1109.479980,431.500305 
M302.472626,648.063049 
	C310.946228,654.865051 320.445526,657.886536 331.335571,656.083618 
	C349.097351,653.143005 362.143524,636.778320 360.844940,618.965149 
	C359.482513,600.275940 344.436432,586.011169 325.938232,585.870850 
	C310.970093,585.757324 298.080994,594.408997 292.442749,608.354492 
	C287.050720,621.691040 290.651642,636.542480 302.472626,648.063049 
M159.975784,323.420990 
	C168.971619,336.204163 181.060623,341.719543 196.655823,339.109558 
	C214.803177,336.072449 227.456726,318.331268 224.983795,299.327148 
	C222.667633,281.527832 205.045990,267.362793 187.399643,269.115417 
	C160.546921,271.782318 146.325272,299.248352 159.975784,323.420990 
M663.345215,584.178345 
	C669.421753,592.497192 675.463562,600.841858 681.612366,609.106934 
	C682.534180,610.345947 683.918945,612.052368 685.155579,612.109375 
	C691.672180,612.409607 698.209839,612.250061 705.495239,612.250061 
	C693.574341,596.117676 682.271179,580.821289 670.914001,565.451782 
	C681.845825,554.002136 692.466064,542.878845 703.318054,531.512817 
	C690.789856,529.708984 679.674011,529.618286 671.976257,541.673279 
	C668.632874,546.909119 663.465393,550.976562 659.149170,555.595947 
	C656.149841,558.806030 653.189331,562.052368 649.269165,566.304749 
	C649.269165,553.641663 649.269165,542.419250 649.269165,531.204285 
	C643.007141,531.204285 637.247986,531.204285 631.309509,531.204285 
	C631.309509,558.233032 631.309509,584.999268 631.309509,611.966064 
	C637.261414,611.966064 643.152466,611.966064 649.276184,611.966064 
	C649.276184,604.691711 649.175903,597.713501 649.349487,590.742126 
	C649.390930,589.079285 649.931091,587.089111 650.966614,585.860046 
	C653.289978,583.102295 656.068298,580.727905 658.777588,578.083984 
	C660.163269,579.886353 661.576233,581.724243 663.345215,584.178345 
M441.446838,555.632263 
	C440.641510,549.973877 442.452667,546.263977 447.185272,546.139221 
	C452.206818,546.006714 457.389343,546.751221 462.265167,548.020691 
	C465.972809,548.985901 469.310547,551.371887 473.001862,553.220398 
	C476.106567,548.684814 479.051483,544.382629 482.111145,539.912842 
	C470.560608,531.306213 458.230591,527.826111 444.585754,530.104248 
	C430.752563,532.413879 422.714691,542.554321 423.202179,556.372986 
	C423.562958,566.600769 429.657074,573.255005 442.246674,577.143494 
	C448.740997,579.149231 455.288483,580.996521 461.721649,583.181274 
	C465.155640,584.347412 467.342773,586.871277 466.810211,590.797058 
	C466.290161,594.630249 463.590454,597.044617 460.070648,597.041809 
	C454.524963,597.037292 448.768921,596.799194 443.498413,595.282288 
	C438.872437,593.950745 434.791260,590.726379 430.294586,588.241455 
	C426.982849,592.238342 423.612732,596.305786 420.266052,600.344910 
	C431.857666,612.407837 455.405518,617.345215 470.074890,610.883423 
	C479.770966,606.612427 484.588562,598.836121 484.804779,588.491028 
	C485.009552,578.692871 480.279907,571.614258 471.110168,567.922302 
	C466.353302,566.007080 461.311920,564.801147 456.545227,562.906921 
	C451.569458,560.929565 446.769287,558.510193 441.446838,555.632263 
M1440.411865,530.901001 
	C1428.843018,534.193848 1422.313232,541.619751 1421.761353,552.111023 
	C1421.076172,565.136475 1425.179932,571.229919 1438.064453,576.211914 
	C1439.918579,576.928894 1441.849243,577.449463 1443.746948,578.052734 
	C1449.431152,579.859680 1455.169922,581.513306 1460.780273,583.525879 
	C1463.876709,584.636658 1466.098633,587.307495 1464.930054,590.518616 
	C1464.035889,592.975952 1461.728149,595.220215 1459.504028,596.783997 
	C1458.068115,597.793640 1455.653320,597.525391 1453.667358,597.619141 
	C1444.131958,598.069641 1436.479004,593.485718 1429.008911,587.857056 
	C1425.430298,592.124756 1422.041382,596.166321 1418.267822,600.666565 
	C1431.900024,611.525696 1446.604126,616.353821 1463.547729,612.245483 
	C1475.838989,609.265259 1482.559448,601.178284 1482.957397,589.512146 
	C1483.362183,577.646118 1477.844116,570.226318 1465.324829,566.132507 
	C1458.864746,564.020081 1452.286621,562.269775 1445.817261,560.184143 
	C1441.936279,558.932922 1438.716675,556.744507 1439.426025,551.992126 
	C1440.117310,547.360474 1443.525269,545.893188 1447.772705,545.811890 
	C1449.103394,545.786377 1450.531860,545.478333 1451.749878,545.847229 
	C1458.305786,547.833130 1464.809448,549.991516 1471.955444,552.291260 
	C1474.356689,548.785156 1477.313843,544.467590 1480.232300,540.206482 
	C1470.360718,531.302734 1455.234131,527.667725 1440.411865,530.901001 
M1035.641846,555.500244 
	C1035.641846,547.394409 1035.641846,539.288513 1035.641846,531.276123 
	C1029.324219,531.276123 1023.603210,531.276123 1017.857544,531.276123 
	C1017.857544,558.351807 1017.857544,585.091064 1017.857544,612.048767 
	C1037.308350,612.048767 1056.553589,612.048767 1075.829346,612.048767 
	C1075.829346,606.709106 1075.829346,601.501038 1075.829346,595.871460 
	C1062.232666,595.871460 1048.993774,595.871460 1035.641846,595.871460 
	C1035.641846,582.462097 1035.641846,569.481201 1035.641846,555.500244 
M1243.499512,612.265381 
	C1255.408203,612.265381 1267.316895,612.265381 1279.056396,612.265381 
	C1279.056396,606.484619 1279.056396,601.387207 1279.056396,595.900940 
	C1265.513428,595.900940 1252.267456,595.900940 1238.650879,595.900940 
	C1238.650879,574.111084 1238.650879,552.721069 1238.650879,531.236145 
	C1232.546997,531.236145 1226.828613,531.236145 1221.232056,531.236145 
	C1221.232056,558.368103 1221.232056,585.204590 1221.232056,612.265320 
	C1228.545044,612.265320 1235.522217,612.265320 1243.499512,612.265381 
M848.002136,553.500000 
	C848.002136,573.054199 848.002136,592.608337 848.002136,611.922852 
	C854.469360,611.922852 860.217041,611.922852 865.984314,611.922852 
	C865.984314,584.857178 865.984314,558.125122 865.984314,531.262817 
	C859.917114,531.262817 854.051636,531.262817 848.002136,531.262817 
	C848.002136,538.551147 848.002136,545.525574 848.002136,553.500000 
z"/>
<path fill="#030303" opacity="1.000000" stroke="none" 
	d="
M1384.143555,413.914978 
	C1376.471680,402.320312 1368.975830,391.041565 1361.479980,379.762817 
	C1361.165771,379.856903 1360.851562,379.950958 1360.537354,380.045044 
	C1360.537354,413.384918 1360.537354,446.724823 1360.537354,480.394257 
	C1347.831421,480.394257 1335.640015,480.394257 1323.239258,480.394257 
	C1323.239258,425.793488 1323.239258,371.366211 1323.239258,316.282715 
	C1331.833252,316.282715 1340.542358,317.138092 1349.007935,316.067719 
	C1359.757812,314.708527 1365.618408,318.812103 1370.801758,328.103851 
	C1380.671997,345.797607 1391.984863,362.686829 1402.709473,379.903381 
	C1403.405029,381.019928 1404.192871,382.079010 1405.351074,383.767517 
	C1410.041382,376.318207 1414.520630,369.274719 1418.929321,362.187378 
	C1427.711426,348.069794 1436.506958,333.959900 1445.166382,319.767029 
	C1446.724243,317.213562 1448.455688,316.157379 1451.528564,316.206299 
	C1463.329346,316.394165 1475.135132,316.282379 1487.277344,316.282379 
	C1487.277344,371.150604 1487.277344,425.682373 1487.277344,480.471008 
	C1475.009033,480.471008 1462.922485,480.471008 1450.324341,480.471008 
	C1450.324341,446.726624 1450.324341,413.030182 1450.324341,379.333740 
	C1449.957520,379.195923 1449.590698,379.058105 1449.223877,378.920288 
	C1445.078613,385.146790 1440.914062,391.360535 1436.791992,397.602356 
	C1427.170410,412.171967 1417.491089,426.704468 1408.016357,441.369019 
	C1405.689819,444.970123 1404.277588,444.779144 1402.087036,441.348450 
	C1396.271729,432.240875 1390.255737,423.261383 1384.143555,413.914978 
z"/>
<path fill="#020202" opacity="1.000000" stroke="none" 
	d="
M1032.169800,435.104248 
	C1015.142700,466.374512 988.077637,479.910461 953.866150,480.647339 
	C934.052185,481.074127 914.221497,480.725220 894.398376,480.725403 
	C892.763794,480.725403 891.129272,480.725433 889.199707,480.725433 
	C889.199707,425.833740 889.199707,371.303223 889.199707,316.709015 
	C889.765625,316.554047 890.228027,316.313995 890.688599,316.317535 
	C914.667236,316.500946 938.705994,315.701447 962.610474,317.136444 
	C1000.745728,319.425751 1034.871826,345.351257 1039.806396,388.599121 
	C1041.621338,404.506409 1039.487061,420.132324 1032.169800,435.104248 
M977.017883,356.309021 
	C961.054871,347.958374 943.877319,351.705872 926.916870,350.768677 
	C926.916870,382.893188 926.916870,414.487061 926.916870,445.788330 
	C939.037292,445.788330 951.107361,446.852661 962.864319,445.393951 
	C970.057678,444.501495 977.629700,440.895050 983.549866,436.507935 
	C1008.763794,417.823090 1006.556763,372.112610 977.017883,356.309021 
z"/>
<path fill="#020202" opacity="1.000000" stroke="none" 
	d="
M1157.779297,457.199127 
	C1149.041138,444.778259 1145.616211,430.813477 1145.367188,416.453003 
	C1144.792603,383.321075 1145.184814,350.172394 1145.184814,316.657837 
	C1157.692627,316.657837 1170.076538,316.657837 1183.060181,316.657837 
	C1183.060181,318.382385 1183.060059,320.149567 1183.060059,321.916748 
	C1183.060913,351.233643 1182.857544,380.553040 1183.220947,409.865448 
	C1183.301880,416.380585 1184.591919,423.141174 1186.708862,429.314270 
	C1190.658691,440.832306 1199.783569,446.940948 1211.583984,447.745117 
	C1218.375000,448.207916 1225.698975,447.507935 1232.113037,445.344971 
	C1242.789185,441.744812 1248.055542,432.789581 1249.916016,421.983307 
	C1250.674194,417.578918 1250.896362,413.037292 1250.909424,408.556824 
	C1250.993896,379.739899 1250.952759,350.922638 1250.952881,322.105469 
	C1250.952881,320.316223 1250.952881,318.526978 1250.952881,316.521088 
	C1263.698975,316.521088 1275.958130,316.521088 1288.665161,316.521088 
	C1288.748413,318.165009 1288.898438,319.757996 1288.899292,321.351044 
	C1288.913330,350.501343 1289.000244,379.652069 1288.869385,408.801788 
	C1288.808472,422.365082 1287.117676,435.697388 1281.088379,448.108398 
	C1273.137939,464.473358 1260.195068,475.231781 1242.793091,479.813965 
	C1221.032227,485.543976 1199.383301,485.117706 1178.681641,475.039062 
	C1170.337158,470.976562 1163.368042,465.132690 1157.779297,457.199127 
z"/>
<path fill="#020202" opacity="1.000000" stroke="none" 
	d="
M845.320190,431.631378 
	C852.329773,447.938934 859.137512,463.920166 866.295959,480.724518 
	C860.622925,480.724518 855.416565,480.724548 850.210205,480.724518 
	C843.710510,480.724518 837.203247,480.539795 830.714233,480.802643 
	C827.487488,480.933350 826.066833,479.702362 824.942078,476.811249 
	C821.098328,466.930725 817.052734,457.125641 812.869934,447.383789 
	C812.300842,446.058380 810.522278,444.355438 809.290588,444.344788 
	C787.809692,444.159302 766.326782,444.210938 744.677063,444.210938 
	C740.373169,454.824463 736.013367,465.197144 731.991211,475.699127 
	C730.570435,479.408722 728.777954,481.002075 724.503784,480.850922 
	C713.716797,480.469421 702.907227,480.724518 691.182434,480.724518 
	C693.651978,474.721619 695.831909,469.252075 698.140747,463.837524 
	C716.846680,419.969543 735.575867,376.111420 754.301270,332.251709 
	C756.121033,327.989410 758.226685,323.825958 759.708557,319.450287 
	C760.802124,316.221222 762.435364,315.182404 765.843994,315.286987 
	C774.668640,315.557770 783.511963,315.227386 792.335632,315.513062 
	C793.975159,315.566132 796.427063,317.000885 797.039795,318.427124 
	C813.183533,356.002563 829.134460,393.660889 845.320190,431.631378 
M784.256470,377.144257 
	C782.405640,372.502167 780.554871,367.860046 778.215515,361.992554 
	C771.279541,378.942841 764.864746,394.619568 758.397705,410.423767 
	C771.976379,410.423767 784.819458,410.423767 798.079285,410.423767 
	C793.456787,399.242859 789.031250,388.538269 784.256470,377.144257 
z"/>
<path fill="#020202" opacity="1.000000" stroke="none" 
	d="
M440.510468,410.402710 
	C427.565155,406.292023 415.734039,401.047394 408.487732,389.232361 
	C397.209167,370.842682 398.459167,333.942230 431.542389,319.598236 
	C457.990479,308.131104 499.743103,315.468414 521.412659,335.890991 
	C515.016541,345.185913 508.565857,354.560211 501.982391,364.127441 
	C491.250214,357.252991 480.690002,350.319519 468.067566,348.791504 
	C461.652130,348.014893 454.880798,348.610107 448.482574,349.763062 
	C443.495056,350.661804 440.260406,354.492462 439.802490,360.049622 
	C439.325592,365.837738 441.312469,370.573517 446.728302,372.642517 
	C455.223999,375.888092 464.064484,378.218506 472.640564,381.269318 
	C483.548920,385.149750 494.879883,388.322571 505.078888,393.626678 
	C535.566833,409.482361 530.903137,454.341583 508.191071,470.752563 
	C497.875336,478.206390 486.238495,482.064056 473.895325,482.797668 
	C445.049316,484.512054 419.021149,476.795135 396.997650,457.408722 
	C396.637451,457.091644 396.340607,456.702545 395.715088,456.021362 
	C403.041840,447.235901 410.358765,438.462219 417.265106,430.180908 
	C426.543884,435.365448 435.133423,441.105621 444.461761,445.135651 
	C455.756378,450.015045 467.782166,451.524323 479.851624,447.135651 
	C485.121124,445.219574 488.536957,441.757904 488.967407,435.871338 
	C489.397491,429.989105 486.946259,425.586945 481.491669,423.657501 
	C470.740356,419.854462 459.824554,416.515594 448.968536,413.010254 
	C446.286438,412.144196 443.572754,411.375916 440.510468,410.402710 
z"/>
<path fill="#020202" opacity="1.000000" stroke="none" 
	d="
M308.959625,326.960999 
	C279.989746,355.689056 251.268799,384.165070 222.552750,412.646027 
	C205.953644,429.109283 205.374252,451.512543 221.114365,468.844238 
	C229.814545,478.424133 238.549942,487.972015 247.246155,497.508820 
	C246.729340,498.287323 246.516052,498.747833 246.182236,499.091125 
	C237.365524,508.157166 228.536362,517.211060 219.320328,526.666138 
	C209.530258,515.912476 200.344925,505.713470 191.037750,495.626862 
	C178.532883,482.074707 171.218719,466.256653 169.782272,447.807526 
	C168.038406,425.410034 173.966309,405.047424 189.620880,389.094513 
	C228.326263,349.651459 267.850616,311.012054 306.901398,272.193268 
	C316.508667,281.690582 325.919708,290.993896 335.171844,300.140106 
	C326.555267,308.959045 317.882935,317.835022 308.959625,326.960999 
z"/>
<path fill="#020202" opacity="1.000000" stroke="none" 
	d="
M295.799011,566.799927 
	C266.465179,595.843872 237.403961,624.661926 208.561890,653.262756 
	C198.996414,643.817444 189.675888,634.614014 179.976212,625.036194 
	C181.082443,623.864746 182.357437,622.434021 183.716019,621.087524 
	C220.130753,584.996765 256.557770,548.918396 292.974426,512.829529 
	C309.405090,496.546783 310.010223,474.368500 294.447205,457.070221 
	C285.660675,447.303986 276.775574,437.626465 267.612091,427.554230 
	C272.459534,422.768372 277.202545,418.170227 281.847870,413.475494 
	C286.519196,408.754486 291.093353,403.937256 296.585144,398.257080 
	C309.817780,414.159088 324.110718,428.389862 334.873871,444.919098 
	C353.829712,474.030060 348.468475,513.424683 324.306976,538.331543 
	C315.039093,547.885254 305.491669,557.167908 295.799011,566.799927 
z"/>
<path fill="#030303" opacity="1.000000" stroke="none" 
	d="
M599.000244,316.282166 
	C626.285522,316.282166 653.070801,316.282166 680.127197,316.282166 
	C680.127197,328.100739 680.127197,339.519470 680.127197,351.308594 
	C663.920227,351.308594 647.827881,351.308594 631.169189,351.308594 
	C631.169189,394.515259 631.169189,437.359924 631.169189,480.464539 
	C618.205566,480.464539 605.808472,480.464539 593.010681,480.464539 
	C593.010681,437.519745 593.010681,394.773773 593.010681,351.681702 
	C576.523315,351.681702 560.429382,351.681702 543.972412,351.681702 
	C543.972412,339.792511 543.972412,328.247467 543.972412,316.282166 
	C562.259827,316.282166 580.380005,316.282166 599.000244,316.282166 
z"/>
<path fill="#010101" opacity="1.000000" stroke="none" 
	d="
M1109.479980,432.000305 
	C1109.479858,448.438293 1109.479858,464.376251 1109.479858,480.487549 
	C1096.670776,480.487549 1084.430786,480.487549 1071.956299,480.487549 
	C1071.956299,425.745972 1071.956299,371.239044 1071.956299,316.520386 
	C1084.472656,316.520386 1096.707153,316.520386 1109.479980,316.520386 
	C1109.479980,355.000244 1109.479980,393.250275 1109.479980,432.000305 
z"/>
<path fill="#1F9CF0" opacity="1.000000" stroke="none" 
	d="
M302.212555,647.819458 
	C290.651642,636.542480 287.050720,621.691040 292.442749,608.354492 
	C298.080994,594.408997 310.970093,585.757324 325.938232,585.870850 
	C344.436432,586.011169 359.482513,600.275940 360.844940,618.965149 
	C362.143524,636.778320 349.097351,653.143005 331.335571,656.083618 
	C320.445526,657.886536 310.946228,654.865051 302.212555,647.819458 
z"/>
<path fill="#1F9CF0" opacity="1.000000" stroke="none" 
	d="
M159.791748,323.105225 
	C146.325272,299.248352 160.546921,271.782318 187.399643,269.115417 
	C205.045990,267.362793 222.667633,281.527832 224.983795,299.327148 
	C227.456726,318.331268 214.803177,336.072449 196.655823,339.109558 
	C181.060623,341.719543 168.971619,336.204163 159.791748,323.105225 
z"/>
<path fill="#040404" opacity="1.000000" stroke="none" 
	d="
M663.167175,583.870239 
	C661.576233,581.724243 660.163269,579.886353 658.777588,578.083984 
	C656.068298,580.727905 653.289978,583.102295 650.966614,585.860046 
	C649.931091,587.089111 649.390930,589.079285 649.349487,590.742126 
	C649.175903,597.713501 649.276184,604.691711 649.276184,611.966064 
	C643.152466,611.966064 637.261414,611.966064 631.309509,611.966064 
	C631.309509,584.999268 631.309509,558.233032 631.309509,531.204285 
	C637.247986,531.204285 643.007141,531.204285 649.269165,531.204285 
	C649.269165,542.419250 649.269165,553.641663 649.269165,566.304749 
	C653.189331,562.052368 656.149841,558.806030 659.149170,555.595947 
	C663.465393,550.976562 668.632874,546.909119 671.976257,541.673279 
	C679.674011,529.618286 690.789856,529.708984 703.318054,531.512817 
	C692.466064,542.878845 681.845825,554.002136 670.914001,565.451782 
	C682.271179,580.821289 693.574341,596.117676 705.495239,612.250061 
	C698.209839,612.250061 691.672180,612.409607 685.155579,612.109375 
	C683.918945,612.052368 682.534180,610.345947 681.612366,609.106934 
	C675.463562,600.841858 669.421753,592.497192 663.167175,583.870239 
z"/>
<path fill="#050505" opacity="1.000000" stroke="none" 
	d="
M441.669617,555.958130 
	C446.769287,558.510193 451.569458,560.929565 456.545227,562.906921 
	C461.311920,564.801147 466.353302,566.007080 471.110168,567.922302 
	C480.279907,571.614258 485.009552,578.692871 484.804779,588.491028 
	C484.588562,598.836121 479.770966,606.612427 470.074890,610.883423 
	C455.405518,617.345215 431.857666,612.407837 420.266052,600.344910 
	C423.612732,596.305786 426.982849,592.238342 430.294586,588.241455 
	C434.791260,590.726379 438.872437,593.950745 443.498413,595.282288 
	C448.768921,596.799194 454.524963,597.037292 460.070648,597.041809 
	C463.590454,597.044617 466.290161,594.630249 466.810211,590.797058 
	C467.342773,586.871277 465.155640,584.347412 461.721649,583.181274 
	C455.288483,580.996521 448.740997,579.149231 442.246674,577.143494 
	C429.657074,573.255005 423.562958,566.600769 423.202179,556.372986 
	C422.714691,542.554321 430.752563,532.413879 444.585754,530.104248 
	C458.230591,527.826111 470.560608,531.306213 482.111145,539.912842 
	C479.051483,544.382629 476.106567,548.684814 473.001862,553.220398 
	C469.310547,551.371887 465.972809,548.985901 462.265167,548.020691 
	C457.389343,546.751221 452.206818,546.006714 447.185272,546.139221 
	C442.452667,546.263977 440.641510,549.973877 441.669617,555.958130 
z"/>
<path fill="#050505" opacity="1.000000" stroke="none" 
	d="
M1440.787109,530.737183 
	C1455.234131,527.667725 1470.360718,531.302734 1480.232300,540.206482 
	C1477.313843,544.467590 1474.356689,548.785156 1471.955444,552.291260 
	C1464.809448,549.991516 1458.305786,547.833130 1451.749878,545.847229 
	C1450.531860,545.478333 1449.103394,545.786377 1447.772705,545.811890 
	C1443.525269,545.893188 1440.117310,547.360474 1439.426025,551.992126 
	C1438.716675,556.744507 1441.936279,558.932922 1445.817261,560.184143 
	C1452.286621,562.269775 1458.864746,564.020081 1465.324829,566.132507 
	C1477.844116,570.226318 1483.362183,577.646118 1482.957397,589.512146 
	C1482.559448,601.178284 1475.838989,609.265259 1463.547729,612.245483 
	C1446.604126,616.353821 1431.900024,611.525696 1418.267822,600.666565 
	C1422.041382,596.166321 1425.430298,592.124756 1429.008911,587.857056 
	C1436.479004,593.485718 1444.131958,598.069641 1453.667358,597.619141 
	C1455.653320,597.525391 1458.068115,597.793640 1459.504028,596.783997 
	C1461.728149,595.220215 1464.035889,592.975952 1464.930054,590.518616 
	C1466.098633,587.307495 1463.876709,584.636658 1460.780273,583.525879 
	C1455.169922,581.513306 1449.431152,579.859680 1443.746948,578.052734 
	C1441.849243,577.449463 1439.918579,576.928894 1438.064453,576.211914 
	C1425.179932,571.229919 1421.076172,565.136475 1421.761353,552.111023 
	C1422.313232,541.619751 1428.843018,534.193848 1440.787109,530.737183 
z"/>
<path fill="#040404" opacity="1.000000" stroke="none" 
	d="
M1035.641846,556.000244 
	C1035.641846,569.481201 1035.641846,582.462097 1035.641846,595.871460 
	C1048.993774,595.871460 1062.232666,595.871460 1075.829346,595.871460 
	C1075.829346,601.501038 1075.829346,606.709106 1075.829346,612.048767 
	C1056.553589,612.048767 1037.308350,612.048767 1017.857544,612.048767 
	C1017.857544,585.091064 1017.857544,558.351807 1017.857544,531.276123 
	C1023.603210,531.276123 1029.324219,531.276123 1035.641846,531.276123 
	C1035.641846,539.288513 1035.641846,547.394409 1035.641846,556.000244 
z"/>
<path fill="#030303" opacity="1.000000" stroke="none" 
	d="
M1242.999512,612.265381 
	C1235.522217,612.265320 1228.545044,612.265320 1221.232056,612.265320 
	C1221.232056,585.204590 1221.232056,558.368103 1221.232056,531.236145 
	C1226.828613,531.236145 1232.546997,531.236145 1238.650879,531.236145 
	C1238.650879,552.721069 1238.650879,574.111084 1238.650879,595.900940 
	C1252.267456,595.900940 1265.513428,595.900940 1279.056396,595.900940 
	C1279.056396,601.387207 1279.056396,606.484619 1279.056396,612.265381 
	C1267.316895,612.265381 1255.408203,612.265381 1242.999512,612.265381 
z"/>
<path fill="#010101" opacity="1.000000" stroke="none" 
	d="
M848.002136,553.000000 
	C848.002136,545.525574 848.002136,538.551147 848.002136,531.262817 
	C854.051636,531.262817 859.917114,531.262817 865.984314,531.262817 
	C865.984314,558.125122 865.984314,584.857178 865.984314,611.922852 
	C860.217041,611.922852 854.469360,611.922852 848.002136,611.922852 
	C848.002136,592.608337 848.002136,573.054199 848.002136,553.000000 
z"/>
<path fill="#FEFEFE" opacity="1.000000" stroke="none" 
	d="
M977.335938,356.503479 
	C1006.556763,372.112610 1008.763794,417.823090 983.549866,436.507935 
	C977.629700,440.895050 970.057678,444.501495 962.864319,445.393951 
	C951.107361,446.852661 939.037292,445.788330 926.916870,445.788330 
	C926.916870,414.487061 926.916870,382.893188 926.916870,350.768677 
	C943.877319,351.705872 961.054871,347.958374 977.335938,356.503479 
z"/>
<path fill="#F8F8F8" opacity="1.000000" stroke="none" 
	d="
M784.431091,377.488953 
	C789.031250,388.538269 793.456787,399.242859 798.079285,410.423767 
	C784.819458,410.423767 771.976379,410.423767 758.397705,410.423767 
	C764.864746,394.619568 771.279541,378.942841 778.215515,361.992554 
	C780.554871,367.860046 782.405640,372.502167 784.431091,377.488953 
z"/>
</svg>
