<svg version="1.1" id="Layer_1" xmlns="http://www.w3.org/2000/svg" xmlns:xlink="http://www.w3.org/1999/xlink" x="0px" y="0px"
	 width="100%" viewBox="0 0 750 250" enable-background="new 0 0 750 250" xml:space="preserve">
<path fill="#FEFEFE" opacity="1.000000" stroke="none" 
	d="
M506.000000,251.000000 
	C337.333344,251.000000 169.166702,251.000000 1.000045,251.000000 
	C1.000030,167.666702 1.000030,84.333397 1.000015,1.000067 
	C250.999939,1.000045 500.999878,1.000045 750.999878,1.000023 
	C750.999878,84.333260 750.999878,167.666519 750.999939,250.999893 
	C669.500000,251.000000 588.000000,251.000000 506.000000,251.000000 
M672.557556,129.270050 
	C672.557556,106.558624 672.557556,83.847198 672.557556,60.928299 
	C669.292480,60.928299 666.741882,61.283085 664.326721,60.861626 
	C657.146667,59.608662 652.794067,62.333874 649.483032,68.887405 
	C645.704773,76.365768 640.733154,83.241188 635.920532,90.954987 
	C630.098083,81.605835 624.736267,72.869766 619.203796,64.243111 
	C618.332825,62.885067 616.749023,61.176083 615.392639,61.080570 
	C610.153442,60.711620 604.872742,60.930740 599.505493,60.930740 
	C599.505493,85.592560 599.505493,109.652283 599.505493,133.773239 
	C605.126038,133.773239 610.484375,133.773239 616.195801,133.773239 
	C616.195801,119.016853 616.195801,104.645622 616.195801,88.841461 
	C623.122864,99.311150 629.280762,108.618286 635.838684,118.530029 
	C642.433228,108.547745 648.643066,99.147766 654.852966,89.747795 
	C655.225342,89.898239 655.597778,90.048683 655.970215,90.199135 
	C655.970215,104.735596 655.970215,119.272064 655.970215,134.161041 
	C660.559143,134.161041 664.702942,133.944946 668.812073,134.229767 
	C672.069275,134.455536 672.998962,133.130005 672.557556,129.270050 
M421.502655,134.153458 
	C427.334778,134.104080 433.182526,134.311523 438.996063,133.957306 
	C456.609589,132.884094 471.214325,119.482582 473.067413,102.952309 
	C475.250519,83.477921 465.597351,66.910912 447.154327,63.034317 
	C433.897858,60.247894 419.897003,61.002792 406.267761,60.180332 
	C406.267761,85.710388 406.267761,109.793221 406.267761,134.153458 
	C411.215332,134.153458 415.859589,134.153458 421.502655,134.153458 
M567.154358,75.506355 
	C567.125793,85.503746 567.314819,95.507942 567.002502,105.496460 
	C566.733093,114.114090 561.625061,119.121010 553.296509,119.721649 
	C545.027405,120.318008 539.232483,115.972000 537.575073,107.678993 
	C537.090820,105.256180 537.057983,102.716705 537.048645,100.229843 
	C537.000183,87.276619 537.026123,74.323112 537.026123,61.220924 
	C531.221924,61.220924 525.838806,61.220924 520.109802,61.220924 
	C520.109802,63.129658 520.104736,64.767532 520.110657,66.405380 
	C520.159790,79.901245 519.633911,93.430450 520.411560,106.884285 
	C521.326294,122.711647 529.424438,131.898697 543.722290,134.534897 
	C548.082825,135.338867 552.700012,135.291595 557.150696,134.965134 
	C571.131592,133.939560 581.709229,125.517128 582.870056,111.549385 
	C584.252747,94.912239 583.195740,78.072334 583.195740,61.263390 
	C578.202942,61.263390 572.824219,61.263390 567.154358,61.263390 
	C567.154358,65.896828 567.154358,70.203651 567.154358,75.506355 
M340.281281,121.735085 
	C341.714935,120.486130 343.110077,118.211678 344.588501,118.156166 
	C353.563293,117.819275 362.557068,117.988213 371.716034,117.988213 
	C373.578094,122.588501 375.302856,127.073059 377.237244,131.465286 
	C377.697632,132.510635 378.825958,133.966858 379.703766,134.007431 
	C384.894226,134.247467 390.101349,134.125763 395.865936,134.125763 
	C395.048157,132.089417 394.581512,130.868988 394.071716,129.666870 
	C385.572235,109.624908 377.072968,89.582878 368.561310,69.546104 
	C364.625702,60.281635 364.609070,60.468712 354.366852,60.208981 
	C350.653107,60.114807 348.858459,61.192486 347.396301,64.713951 
	C338.474609,86.201111 329.264618,107.568504 320.170837,128.984344 
	C319.537933,130.474808 319.066681,132.033890 318.392395,133.918350 
	C320.066345,134.012482 321.336334,134.135666 322.607361,134.147369 
	C335.209229,134.263260 335.209290,134.258026 340.281281,121.735085 
M189.836090,86.603371 
	C190.636063,92.947464 194.191742,97.464943 199.805481,100.005234 
	C204.469116,102.115593 209.509964,103.387306 214.369492,105.071571 
	C217.972839,106.320457 221.764603,107.240067 225.091614,109.018723 
	C229.433502,111.339951 229.098404,116.737839 224.628296,118.855057 
	C222.892441,119.677231 220.800262,119.920006 218.842865,120.071762 
	C210.119217,120.748138 203.241516,116.351097 196.382965,111.363098 
	C193.075806,115.328461 189.902435,119.133408 186.758713,122.902817 
	C197.273193,134.329712 218.686584,138.688431 232.186020,132.345688 
	C240.612778,128.386353 244.574615,121.527916 244.756760,112.427956 
	C244.937424,103.401520 240.478241,97.237434 232.308517,93.788948 
	C228.645447,92.242737 224.786087,91.159264 221.008942,89.886208 
	C217.076431,88.560783 212.963486,87.607262 209.281006,85.781868 
	C207.752991,85.024445 206.253418,82.373291 206.355438,80.680626 
	C206.457367,78.989410 208.294037,76.993607 209.899002,75.926949 
	C211.271439,75.014832 213.550766,74.629509 215.155045,75.051773 
	C221.463242,76.712181 227.663239,78.783653 234.648499,80.931625 
	C236.748062,77.903061 239.568314,73.834915 242.572876,69.500908 
	C232.146957,61.200981 220.584747,58.108177 207.827133,60.713631 
	C194.832855,63.367420 188.444092,72.605110 189.836090,86.603371 
M141.363220,46.812271 
	C126.367653,61.707355 111.296402,76.527245 96.400017,91.520866 
	C84.069038,103.932335 82.064323,122.341553 91.912338,136.217056 
	C96.486580,142.662003 102.219978,148.284241 107.376251,154.219955 
	C111.849129,149.822586 115.952728,145.788254 120.298233,141.516113 
	C116.755188,137.613159 113.182030,133.709412 109.644516,129.773636 
	C101.464073,120.672272 101.678452,111.603996 110.344772,102.963364 
	C125.547913,87.805267 140.790833,72.687080 156.009338,57.544380 
	C157.263412,56.296555 158.458420,54.989388 159.680557,53.710136 
	C155.381256,49.401611 151.394226,45.406013 146.241608,40.242329 
	C144.800507,42.239449 143.335144,44.270195 141.363220,46.812271 
M113.350464,175.850067 
	C105.873863,183.440140 98.397263,191.030228 91.414200,198.119278 
	C95.503113,202.198761 99.655441,206.341522 104.506104,211.181015 
	C120.930649,194.448929 137.822281,177.412506 154.512894,160.181412 
	C166.984253,147.306198 167.811127,127.523300 156.524384,113.669518 
	C152.120499,108.264023 147.215210,103.267036 142.421631,97.954681 
	C138.245422,102.290451 134.226425,106.463013 129.951920,110.900833 
	C133.372238,114.684334 137.054871,118.718956 140.694458,122.792030 
	C148.682617,131.731644 148.482407,140.865585 140.077972,149.268631 
	C131.359100,157.986115 122.595978,166.659317 113.350464,175.850067 
M274.302216,96.500076 
	C274.302216,108.940582 274.302216,121.381096 274.302216,133.797668 
	C280.275421,133.797668 285.662018,133.797668 291.331299,133.797668 
	C291.331299,114.660629 291.331299,95.886902 291.331299,76.581268 
	C298.692291,76.581268 305.767059,76.581268 312.909729,76.581268 
	C312.909729,71.122452 312.909729,66.203537 312.909729,61.300415 
	C292.638306,61.300415 272.619293,61.300415 252.742554,61.300415 
	C252.742554,66.566734 252.742554,71.447517 252.742554,76.720871 
	C260.068787,76.720871 266.991364,76.720871 274.302216,76.720871 
	C274.302216,83.248283 274.302216,89.374184 274.302216,96.500076 
M487.297546,101.499870 
	C487.297546,112.263374 487.297546,123.026886 487.297546,133.804886 
	C493.240509,133.804886 498.617615,133.804886 503.914551,133.804886 
	C503.914551,109.400955 503.914551,85.354324 503.914551,61.289230 
	C498.299561,61.289230 492.939331,61.289230 487.297546,61.289230 
	C487.297546,74.598885 487.297546,87.549377 487.297546,101.499870 
M140.237228,192.005524 
	C140.046051,193.154114 139.781418,194.295959 139.675446,195.452362 
	C138.915833,203.742111 144.249176,210.721466 152.572815,212.374756 
	C160.101562,213.870163 167.694443,209.333023 170.200867,201.841095 
	C172.803741,194.060867 168.995071,185.549011 161.485245,182.362823 
	C153.232513,178.861450 145.024979,182.363602 140.237228,192.005524 
M86.168213,42.422375 
	C80.657623,46.618649 77.999847,52.021694 79.583008,58.967514 
	C81.001572,65.191139 84.969482,69.362160 91.132004,70.808411 
	C97.433075,72.287170 103.004791,70.528221 107.229042,65.363853 
	C111.792618,59.784653 111.867607,51.628441 107.434891,45.949886 
	C102.444725,39.557236 95.034767,38.146957 86.168213,42.422375 
M315.322144,156.523529 
	C310.239319,161.339172 305.156464,166.154816 299.423096,171.586792 
	C299.423096,166.251465 299.423096,161.562973 299.423096,156.814072 
	C296.425629,156.814072 294.023376,156.814072 291.591614,156.814072 
	C291.591614,169.008820 291.591614,180.887238 291.591614,192.671951 
	C294.323486,192.671951 296.716980,192.671951 299.085999,192.671951 
	C300.150024,187.464111 297.143036,181.354080 303.842377,177.941132 
	C306.206696,181.167984 309.049866,184.279663 310.992584,187.877563 
	C314.008179,193.462357 318.394897,193.810394 324.111908,192.477005 
	C318.995209,185.501129 314.117828,178.851578 309.085449,171.990738 
	C313.865784,166.964340 318.449371,162.144775 323.814728,156.503250 
	C320.365326,156.503250 318.236755,156.503250 315.322144,156.523529 
M664.592407,157.760986 
	C659.733582,157.512619 654.729248,156.433197 650.057129,157.251114 
	C645.444885,158.058517 643.216797,162.227783 643.115601,167.049988 
	C643.015747,171.805161 645.452332,174.939499 649.777893,176.546341 
	C652.571472,177.584106 655.641418,177.968399 658.301208,179.242981 
	C659.976807,180.045898 661.123596,181.952408 662.507568,183.363861 
	C660.626221,184.340515 658.621704,186.304733 656.889099,186.088638 
	C653.261597,185.636169 649.777344,184.035156 645.802795,182.768295 
	C644.730957,184.118759 643.344727,185.865463 641.853333,187.744614 
	C647.887695,192.886154 654.459778,194.417557 661.711487,192.982162 
	C666.855347,191.964005 669.937683,188.408981 670.462769,183.409592 
	C671.010193,178.196991 668.942139,174.867981 663.503418,172.685303 
	C660.892822,171.637604 657.961731,171.281067 655.510498,169.980530 
	C653.790344,169.067871 652.635925,167.088867 651.228821,165.586090 
	C653.226868,164.777786 655.303284,163.165283 657.204407,163.350662 
	C660.018188,163.625031 662.707581,165.175613 665.547363,166.218628 
	C666.870789,164.298691 668.071228,162.557144 669.431396,160.583923 
	C667.826294,159.588531 666.572876,158.811218 664.592407,157.760986 
M202.449707,158.911758 
	C195.955948,166.319183 197.874557,173.997284 207.041550,177.114090 
	C209.395523,177.914444 212.013184,178.154861 214.146317,179.318604 
	C215.746735,180.191711 216.764984,182.131943 218.042404,183.597076 
	C216.278778,184.497757 214.391205,186.326324 212.776688,186.110672 
	C209.143631,185.625412 205.645905,184.126999 201.435013,182.839752 
	C200.514587,183.932571 199.052475,185.668533 197.351074,187.688599 
	C203.805603,193.061111 210.796616,194.822586 218.503235,192.640045 
	C223.244431,191.297363 225.888321,187.845947 226.122818,182.697464 
	C226.352844,177.647659 223.906601,174.486862 219.389664,172.802551 
	C216.440826,171.702988 213.253601,171.161179 210.440720,169.811783 
	C208.965302,169.103989 208.065964,167.195267 206.906464,165.828873 
	C208.481552,164.918243 210.159195,163.113602 211.610733,163.280121 
	C214.788269,163.644653 217.851089,165.009094 221.324295,166.076935 
	C222.442215,164.364822 223.654556,162.508133 225.006332,160.437881 
	C217.653931,155.856552 210.633835,153.984924 202.449707,158.911758 
M476.562256,185.808716 
	C474.938263,185.808716 473.314240,185.808716 471.151123,185.808716 
	C471.151123,175.795959 471.151123,166.253052 471.151123,156.891296 
	C468.192749,156.891296 465.782867,156.891296 463.435303,156.891296 
	C463.435303,169.017914 463.435303,180.760239 463.435303,192.687469 
	C472.169830,192.687469 480.671387,192.687469 489.232758,192.687469 
	C489.232758,190.279404 489.232758,188.196899 489.232758,185.808716 
	C485.152130,185.808716 481.350586,185.808716 476.562256,185.808716 
M561.858337,181.334473 
	C561.858337,173.241699 561.858337,165.148911 561.858337,156.789734 
	C559.028503,156.789734 556.624878,156.789734 553.821655,156.789734 
	C553.821655,167.589813 553.821655,178.181366 553.821655,188.772919 
	C553.821655,190.049622 553.821655,191.326309 553.821655,192.650620 
	C562.815735,192.650620 571.326782,192.650620 579.669373,192.650620 
	C579.669373,190.210144 579.669373,188.128586 579.669373,185.813126 
	C574.577087,185.813126 569.774292,185.650711 564.989380,185.873657 
	C562.090332,186.008728 561.593140,184.630035 561.858337,181.334473 
M395.988708,163.635666 
	C395.988708,161.379211 395.988708,159.122742 395.988708,156.821167 
	C392.987640,156.821167 390.581940,156.821167 387.963501,156.821167 
	C387.963501,163.076385 387.963501,169.038864 387.963501,175.001328 
	C387.963501,180.918030 387.963501,186.834747 387.963501,192.697510 
	C390.922241,192.697510 393.311829,192.697510 395.988708,192.697510 
	C395.988708,183.135025 395.988708,173.870590 395.988708,163.635666 
z"/>
<path fill="#060606" opacity="1.000000" stroke="none" 
	d="
M672.557373,129.742096 
	C672.998962,133.130005 672.069275,134.455536 668.812073,134.229767 
	C664.702942,133.944946 660.559143,134.161041 655.970215,134.161041 
	C655.970215,119.272064 655.970215,104.735596 655.970215,90.199135 
	C655.597778,90.048683 655.225342,89.898239 654.852966,89.747795 
	C648.643066,99.147766 642.433228,108.547745 635.838684,118.530029 
	C629.280762,108.618286 623.122864,99.311150 616.195801,88.841461 
	C616.195801,104.645622 616.195801,119.016853 616.195801,133.773239 
	C610.484375,133.773239 605.126038,133.773239 599.505493,133.773239 
	C599.505493,109.652283 599.505493,85.592560 599.505493,60.930740 
	C604.872742,60.930740 610.153442,60.711620 615.392639,61.080570 
	C616.749023,61.176083 618.332825,62.885067 619.203796,64.243111 
	C624.736267,72.869766 630.098083,81.605835 635.920532,90.954987 
	C640.733154,83.241188 645.704773,76.365768 649.483032,68.887405 
	C652.794067,62.333874 657.146667,59.608662 664.326721,60.861626 
	C666.741882,61.283085 669.292480,60.928299 672.557556,60.928299 
	C672.557556,83.847198 672.557556,106.558624 672.557373,129.742096 
z"/>
<path fill="#040404" opacity="1.000000" stroke="none" 
	d="
M421.003235,134.153458 
	C415.859589,134.153458 411.215332,134.153458 406.267761,134.153458 
	C406.267761,109.793221 406.267761,85.710388 406.267761,60.180332 
	C419.897003,61.002792 433.897858,60.247894 447.154327,63.034317 
	C465.597351,66.910912 475.250519,83.477921 473.067413,102.952309 
	C471.214325,119.482582 456.609589,132.884094 438.996063,133.957306 
	C433.182526,134.311523 427.334778,134.104080 421.003235,134.153458 
M455.906219,99.224052 
	C455.836548,81.405174 444.334991,73.439301 423.230774,76.670418 
	C423.230774,90.680054 423.230774,104.700829 423.230774,118.693893 
	C445.203003,120.050423 452.919189,115.592514 455.906219,99.224052 
z"/>
<path fill="#040404" opacity="1.000000" stroke="none" 
	d="
M567.154358,75.008408 
	C567.154358,70.203651 567.154358,65.896828 567.154358,61.263390 
	C572.824219,61.263390 578.202942,61.263390 583.195740,61.263390 
	C583.195740,78.072334 584.252747,94.912239 582.870056,111.549385 
	C581.709229,125.517128 571.131592,133.939560 557.150696,134.965134 
	C552.700012,135.291595 548.082825,135.338867 543.722290,134.534897 
	C529.424438,131.898697 521.326294,122.711647 520.411560,106.884285 
	C519.633911,93.430450 520.159790,79.901245 520.110657,66.405380 
	C520.104736,64.767532 520.109802,63.129658 520.109802,61.220924 
	C525.838806,61.220924 531.221924,61.220924 537.026123,61.220924 
	C537.026123,74.323112 537.000183,87.276619 537.048645,100.229843 
	C537.057983,102.716705 537.090820,105.256180 537.575073,107.678993 
	C539.232483,115.972000 545.027405,120.318008 553.296509,119.721649 
	C561.625061,119.121010 566.733093,114.114090 567.002502,105.496460 
	C567.314819,95.507942 567.125793,85.503746 567.154358,75.008408 
z"/>
<path fill="#040404" opacity="1.000000" stroke="none" 
	d="
M340.149933,122.111641 
	C335.209290,134.258026 335.209229,134.263260 322.607361,134.147369 
	C321.336334,134.135666 320.066345,134.012482 318.392395,133.918350 
	C319.066681,132.033890 319.537933,130.474808 320.170837,128.984344 
	C329.264618,107.568504 338.474609,86.201111 347.396301,64.713951 
	C348.858459,61.192486 350.653107,60.114807 354.366852,60.208981 
	C364.609070,60.468712 364.625702,60.281635 368.561310,69.546104 
	C377.072968,89.582878 385.572235,109.624908 394.071716,129.666870 
	C394.581512,130.868988 395.048157,132.089417 395.865936,134.125763 
	C390.101349,134.125763 384.894226,134.247467 379.703766,134.007431 
	C378.825958,133.966858 377.697632,132.510635 377.237244,131.465286 
	C375.302856,127.073059 373.578094,122.588501 371.716034,117.988213 
	C362.557068,117.988213 353.563293,117.819275 344.588501,118.156166 
	C343.110077,118.211678 341.714935,120.486130 340.149933,122.111641 
M364.636688,100.270195 
	C362.120483,94.217468 359.604279,88.164742 356.739410,81.273270 
	C353.607300,89.035927 350.875092,95.807564 347.973663,102.998489 
	C353.353821,102.998489 357.990326,103.088882 362.616577,102.911873 
	C363.412292,102.881432 364.164490,101.713310 364.636688,100.270195 
z"/>
<path fill="#050505" opacity="1.000000" stroke="none" 
	d="
M189.783112,86.196762 
	C188.444092,72.605110 194.832855,63.367420 207.827133,60.713631 
	C220.584747,58.108177 232.146957,61.200981 242.572876,69.500908 
	C239.568314,73.834915 236.748062,77.903061 234.648499,80.931625 
	C227.663239,78.783653 221.463242,76.712181 215.155045,75.051773 
	C213.550766,74.629509 211.271439,75.014832 209.899002,75.926949 
	C208.294037,76.993607 206.457367,78.989410 206.355438,80.680626 
	C206.253418,82.373291 207.752991,85.024445 209.281006,85.781868 
	C212.963486,87.607262 217.076431,88.560783 221.008942,89.886208 
	C224.786087,91.159264 228.645447,92.242737 232.308517,93.788948 
	C240.478241,97.237434 244.937424,103.401520 244.756760,112.427956 
	C244.574615,121.527916 240.612778,128.386353 232.186020,132.345688 
	C218.686584,138.688431 197.273193,134.329712 186.758713,122.902817 
	C189.902435,119.133408 193.075806,115.328461 196.382965,111.363098 
	C203.241516,116.351097 210.119217,120.748138 218.842865,120.071762 
	C220.800262,119.920006 222.892441,119.677231 224.628296,118.855057 
	C229.098404,116.737839 229.433502,111.339951 225.091614,109.018723 
	C221.764603,107.240067 217.972839,106.320457 214.369492,105.071571 
	C209.509964,103.387306 204.469116,102.115593 199.805481,100.005234 
	C194.191742,97.464943 190.636063,92.947464 189.783112,86.196762 
z"/>
<path fill="#050505" opacity="1.000000" stroke="none" 
	d="
M141.616486,46.556606 
	C143.335144,44.270195 144.800507,42.239449 146.241608,40.242329 
	C151.394226,45.406013 155.381256,49.401611 159.680557,53.710136 
	C158.458420,54.989388 157.263412,56.296555 156.009338,57.544380 
	C140.790833,72.687080 125.547913,87.805267 110.344772,102.963364 
	C101.678452,111.603996 101.464073,120.672272 109.644516,129.773636 
	C113.182030,133.709412 116.755188,137.613159 120.298233,141.516113 
	C115.952728,145.788254 111.849129,149.822586 107.376251,154.219955 
	C102.219978,148.284241 96.486580,142.662003 91.912338,136.217056 
	C82.064323,122.341553 84.069038,103.932335 96.400017,91.520866 
	C111.296402,76.527245 126.367653,61.707355 141.616486,46.556606 
z"/>
<path fill="#040404" opacity="1.000000" stroke="none" 
	d="
M113.601334,175.600983 
	C122.595978,166.659317 131.359100,157.986115 140.077972,149.268631 
	C148.482407,140.865585 148.682617,131.731644 140.694458,122.792030 
	C137.054871,118.718956 133.372238,114.684334 129.951920,110.900833 
	C134.226425,106.463013 138.245422,102.290451 142.421631,97.954681 
	C147.215210,103.267036 152.120499,108.264023 156.524384,113.669518 
	C167.811127,127.523300 166.984253,147.306198 154.512894,160.181412 
	C137.822281,177.412506 120.930649,194.448929 104.506104,211.181015 
	C99.655441,206.341522 95.503113,202.198761 91.414200,198.119278 
	C98.397263,191.030228 105.873863,183.440140 113.601334,175.600983 
z"/>
<path fill="#070707" opacity="1.000000" stroke="none" 
	d="
M274.302216,96.000084 
	C274.302216,89.374184 274.302216,83.248283 274.302216,76.720871 
	C266.991364,76.720871 260.068787,76.720871 252.742554,76.720871 
	C252.742554,71.447517 252.742554,66.566734 252.742554,61.300415 
	C272.619293,61.300415 292.638306,61.300415 312.909729,61.300415 
	C312.909729,66.203537 312.909729,71.122452 312.909729,76.581268 
	C305.767059,76.581268 298.692291,76.581268 291.331299,76.581268 
	C291.331299,95.886902 291.331299,114.660629 291.331299,133.797668 
	C285.662018,133.797668 280.275421,133.797668 274.302216,133.797668 
	C274.302216,121.381096 274.302216,108.940582 274.302216,96.000084 
z"/>
<path fill="#070707" opacity="1.000000" stroke="none" 
	d="
M487.297546,100.999863 
	C487.297546,87.549377 487.297546,74.598885 487.297546,61.289230 
	C492.939331,61.289230 498.299561,61.289230 503.914551,61.289230 
	C503.914551,85.354324 503.914551,109.400955 503.914551,133.804886 
	C498.617615,133.804886 493.240509,133.804886 487.297546,133.804886 
	C487.297546,123.026886 487.297546,112.263374 487.297546,100.999863 
z"/>
<path fill="#219DF0" opacity="1.000000" stroke="none" 
	d="
M140.388031,191.653107 
	C145.024979,182.363602 153.232513,178.861450 161.485245,182.362823 
	C168.995071,185.549011 172.803741,194.060867 170.200867,201.841095 
	C167.694443,209.333023 160.101562,213.870163 152.572815,212.374756 
	C144.249176,210.721466 138.915833,203.742111 139.675446,195.452362 
	C139.781418,194.295959 140.046051,193.154114 140.388031,191.653107 
z"/>
<path fill="#219DF0" opacity="1.000000" stroke="none" 
	d="
M86.493744,42.224331 
	C95.034767,38.146957 102.444725,39.557236 107.434891,45.949886 
	C111.867607,51.628441 111.792618,59.784653 107.229042,65.363853 
	C103.004791,70.528221 97.433075,72.287170 91.132004,70.808411 
	C84.969482,69.362160 81.001572,65.191139 79.583008,58.967514 
	C77.999847,52.021694 80.657623,46.618649 86.493744,42.224331 
z"/>
<path fill="#0B0B0B" opacity="1.000000" stroke="none" 
	d="
M315.715149,156.513397 
	C318.236755,156.503250 320.365326,156.503250 323.814728,156.503250 
	C318.449371,162.144775 313.865784,166.964340 309.085449,171.990738 
	C314.117828,178.851578 318.995209,185.501129 324.111908,192.477005 
	C318.394897,193.810394 314.008179,193.462357 310.992584,187.877563 
	C309.049866,184.279663 306.206696,181.167984 303.842377,177.941132 
	C297.143036,181.354080 300.150024,187.464111 299.085999,192.671951 
	C296.716980,192.671951 294.323486,192.671951 291.591614,192.671951 
	C291.591614,180.887238 291.591614,169.008820 291.591614,156.814072 
	C294.023376,156.814072 296.425629,156.814072 299.423096,156.814072 
	C299.423096,161.562973 299.423096,166.251465 299.423096,171.586792 
	C305.156464,166.154816 310.239319,161.339172 315.715149,156.513397 
z"/>
<path fill="#0B0B0B" opacity="1.000000" stroke="none" 
	d="
M664.955933,157.897461 
	C666.572876,158.811218 667.826294,159.588531 669.431396,160.583923 
	C668.071228,162.557144 666.870789,164.298691 665.547363,166.218628 
	C662.707581,165.175613 660.018188,163.625031 657.204407,163.350662 
	C655.303284,163.165283 653.226868,164.777786 651.228821,165.586075 
	C652.635925,167.088867 653.790344,169.067871 655.510498,169.980530 
	C657.961731,171.281067 660.892822,171.637604 663.503418,172.685303 
	C668.942139,174.867981 671.010193,178.196991 670.462769,183.409592 
	C669.937683,188.408981 666.855347,191.964005 661.711487,192.982162 
	C654.459778,194.417557 647.887695,192.886154 641.853333,187.744614 
	C643.344727,185.865463 644.730957,184.118759 645.802795,182.768295 
	C649.777344,184.035156 653.261597,185.636169 656.889099,186.088638 
	C658.621704,186.304733 660.626221,184.340515 662.507568,183.363861 
	C661.123596,181.952408 659.976807,180.045898 658.301208,179.242981 
	C655.641418,177.968399 652.571472,177.584106 649.777893,176.546341 
	C645.452332,174.939499 643.015747,171.805161 643.115601,167.049988 
	C643.216797,162.227783 645.444885,158.058517 650.057129,157.251114 
	C654.729248,156.433197 659.733582,157.512619 664.955933,157.897461 
z"/>
<path fill="#0B0B0B" opacity="1.000000" stroke="none" 
	d="
M202.743805,158.666656 
	C210.633835,153.984924 217.653931,155.856552 225.006332,160.437881 
	C223.654556,162.508133 222.442215,164.364822 221.324295,166.076935 
	C217.851089,165.009094 214.788269,163.644653 211.610733,163.280121 
	C210.159195,163.113602 208.481552,164.918243 206.906464,165.828888 
	C208.065964,167.195267 208.965302,169.103989 210.440720,169.811783 
	C213.253601,171.161179 216.440826,171.702988 219.389664,172.802551 
	C223.906601,174.486862 226.352844,177.647659 226.122818,182.697464 
	C225.888321,187.845947 223.244431,191.297363 218.503235,192.640045 
	C210.796616,194.822586 203.805603,193.061111 197.351074,187.688599 
	C199.052475,185.668533 200.514587,183.932571 201.435013,182.839752 
	C205.645905,184.126999 209.143631,185.625412 212.776688,186.110672 
	C214.391205,186.326324 216.278778,184.497757 218.042419,183.597076 
	C216.764984,182.131943 215.746735,180.191711 214.146317,179.318604 
	C212.013184,178.154861 209.395523,177.914444 207.041550,177.114090 
	C197.874557,173.997284 195.955948,166.319183 202.743805,158.666656 
z"/>
<path fill="#090909" opacity="1.000000" stroke="none" 
	d="
M477.055634,185.808716 
	C481.350586,185.808716 485.152130,185.808716 489.232758,185.808716 
	C489.232758,188.196899 489.232758,190.279404 489.232758,192.687469 
	C480.671387,192.687469 472.169830,192.687469 463.435303,192.687469 
	C463.435303,180.760239 463.435303,169.017914 463.435303,156.891296 
	C465.782867,156.891296 468.192749,156.891296 471.151123,156.891296 
	C471.151123,166.253052 471.151123,175.795959 471.151123,185.808716 
	C473.314240,185.808716 474.938263,185.808716 477.055634,185.808716 
z"/>
<path fill="#070707" opacity="1.000000" stroke="none" 
	d="
M561.858398,181.814392 
	C561.593140,184.630035 562.090332,186.008728 564.989380,185.873657 
	C569.774292,185.650711 574.577087,185.813126 579.669373,185.813126 
	C579.669373,188.128586 579.669373,190.210144 579.669373,192.650620 
	C571.326782,192.650620 562.815735,192.650620 553.821655,192.650620 
	C553.821655,191.326309 553.821655,190.049622 553.821655,188.772919 
	C553.821655,178.181366 553.821655,167.589813 553.821655,156.789734 
	C556.624878,156.789734 559.028503,156.789734 561.858337,156.789734 
	C561.858337,165.148911 561.858337,173.241699 561.858398,181.814392 
z"/>
<path fill="#040404" opacity="1.000000" stroke="none" 
	d="
M395.988708,164.120911 
	C395.988708,173.870590 395.988708,183.135025 395.988708,192.697510 
	C393.311829,192.697510 390.922241,192.697510 387.963501,192.697510 
	C387.963501,186.834747 387.963501,180.918030 387.963501,175.001328 
	C387.963501,169.038864 387.963501,163.076385 387.963501,156.821167 
	C390.581940,156.821167 392.987640,156.821167 395.988708,156.821167 
	C395.988708,159.122742 395.988708,161.379211 395.988708,164.120911 
z"/>
<path fill="#FBFBFB" opacity="1.000000" stroke="none" 
	d="
M455.881683,99.653839 
	C452.919189,115.592514 445.203003,120.050423 423.230774,118.693893 
	C423.230774,104.700829 423.230774,90.680054 423.230774,76.670418 
	C444.334991,73.439301 455.836548,81.405174 455.881683,99.653839 
z"/>
<path fill="#F3F3F3" opacity="1.000000" stroke="none" 
	d="
M364.786743,100.670456 
	C364.164490,101.713310 363.412292,102.881432 362.616577,102.911873 
	C357.990326,103.088882 353.353821,102.998489 347.973663,102.998489 
	C350.875092,95.807564 353.607300,89.035927 356.739410,81.273270 
	C359.604279,88.164742 362.120483,94.217468 364.786743,100.670456 
z"/>
</svg>