<svg version="1.1" id="Layer_1" xmlns="http://www.w3.org/2000/svg" xmlns:xlink="http://www.w3.org/1999/xlink" x="0px" y="0px"
	 width="100%" viewBox="0 0 300 100" enable-background="new 0 0 300 100" xml:space="preserve">
<path fill="#FDFDFD" opacity="1.000000" stroke="none" 
	d="
M196.000000,101.000000 
	C130.666687,101.000000 65.833374,101.000000 1.000043,101.000000 
	C1.000029,67.666695 1.000029,34.333393 1.000015,1.000066 
	C100.999939,1.000044 200.999878,1.000044 300.999878,1.000022 
	C300.999908,34.333263 300.999908,67.666527 300.999939,100.999893 
	C266.166656,101.000000 231.333328,101.000000 196.000000,101.000000 
M255.007248,43.472530 
	C255.850342,44.660530 256.693451,45.848526 257.832367,47.453331 
	C260.474670,43.651943 262.927338,40.123363 266.153076,35.482605 
	C266.153076,42.539814 266.153076,48.138100 266.153076,53.841179 
	C268.546753,53.841179 270.604462,53.841179 272.748444,53.841179 
	C272.748444,43.859013 272.748444,34.120907 272.748444,24.541676 
	C262.338989,21.205208 262.847443,32.150700 257.510529,35.751991 
	C255.646957,32.780659 253.627258,29.961163 252.031387,26.919310 
	C249.793121,22.652952 246.395309,24.248789 243.255066,24.397053 
	C243.255066,34.521698 243.255066,44.261375 243.255066,53.820030 
	C245.521866,53.820030 247.460968,53.820030 249.813400,53.820030 
	C249.813400,50.775059 249.813400,47.979477 249.813400,45.183895 
	C249.813400,42.504665 249.813400,39.825436 249.813400,37.146210 
	C250.134338,37.140339 250.455261,37.134468 250.776199,37.128597 
	C252.062714,39.036243 253.349228,40.943893 255.007248,43.472530 
M189.953583,45.053452 
	C193.272232,34.861454 188.460800,25.883240 178.383148,24.441431 
	C173.551712,23.750200 168.539520,24.322392 163.530640,24.322392 
	C163.530640,34.393677 163.530640,44.114605 163.530640,54.084694 
	C167.670395,54.084694 171.489243,54.136913 175.306152,54.072903 
	C181.603867,53.967293 186.537094,51.433861 189.953583,45.053452 
M227.468231,46.868851 
	C220.830551,49.531158 217.402161,47.458496 217.252655,40.538605 
	C217.135757,35.127735 217.229233,29.712320 217.229233,24.296368 
	C214.651779,24.296368 212.708298,24.296368 210.550018,24.296368 
	C210.550018,31.122295 210.097122,37.774929 210.676636,44.336376 
	C211.263138,50.976784 216.130432,54.545162 223.178085,54.655975 
	C230.350464,54.768749 235.587128,51.035187 236.192139,44.288544 
	C236.780396,37.728584 236.319855,31.074575 236.319855,24.376114 
	C234.085922,24.376114 232.031631,24.376114 229.708084,24.376114 
	C229.708084,27.487898 229.904633,30.323692 229.662827,33.121605 
	C229.283875,37.506413 228.608810,41.865623 227.468231,46.868851 
M151.693207,53.051220 
	C153.987701,53.519154 156.282181,53.987087 159.514755,54.646328 
	C155.576721,45.394672 151.744415,37.305359 148.720444,28.924387 
	C147.060532,24.323936 144.586029,23.029243 139.900345,24.289120 
	C135.827271,33.903835 131.666260,43.726154 127.505249,53.548473 
	C127.912613,54.039345 128.319977,54.530216 128.727341,55.021091 
	C130.904526,53.910770 134.461060,53.261147 135.013184,51.608063 
	C137.083710,45.408779 141.896240,47.984703 145.755569,47.338585 
	C149.826340,46.657066 150.237808,49.767071 151.693207,53.051220 
M87.141029,54.428871 
	C93.712662,53.450996 96.699585,50.900322 97.063240,45.955814 
	C97.428604,40.988178 95.256538,38.407234 88.920967,36.345181 
	C87.502792,35.883606 85.910179,35.768181 84.656113,35.045372 
	C83.390327,34.315811 82.445488,33.029419 81.360046,31.986980 
	C82.870895,31.320570 84.444550,29.998972 85.878357,30.136395 
	C88.215912,30.360439 90.462181,31.536886 92.961761,32.384274 
	C94.040504,30.783251 95.095688,29.217196 97.195107,26.101330 
	C91.485466,25.252201 87.056786,24.060064 82.634079,24.081816 
	C77.957291,24.104815 75.013741,27.205935 74.437622,31.927485 
	C73.873505,36.550560 76.246887,39.514957 80.522514,40.983543 
	C83.027557,41.843975 85.655785,42.372437 88.102173,43.362579 
	C88.961243,43.710274 90.156868,45.303818 89.948181,45.777523 
	C89.520584,46.748123 88.143715,48.082726 87.339882,47.969852 
	C83.875664,47.483429 80.477379,46.527527 76.495270,45.614143 
	C75.759628,46.542610 74.581398,48.029686 72.374603,50.814934 
	C77.682915,52.226421 82.016312,53.378677 87.141029,54.428871 
M50.925282,32.425121 
	C54.602917,28.672394 58.280548,24.919666 61.402878,21.733582 
	C59.815228,19.752628 58.406593,17.995041 56.335621,15.411036 
	C50.175724,21.916628 44.752563,28.540085 38.414524,34.125359 
	C29.185646,42.258133 29.331200,53.675224 41.415749,61.964016 
	C42.899406,60.496971 44.413773,58.999557 46.123680,57.308788 
	C44.743713,55.749813 43.548931,54.390984 42.344387,53.040867 
	C37.972965,48.141151 38.017849,45.316517 42.620419,40.656231 
	C45.193417,38.050972 47.825905,35.504459 50.925282,32.425121 
M34.407669,81.131134 
	C35.646000,82.669716 36.884331,84.208298 38.942009,86.764893 
	C45.712753,79.650864 51.388561,72.878723 57.903446,67.043358 
	C66.365860,59.463615 66.859871,47.965244 54.581932,39.857159 
	C52.971363,41.289745 51.368320,42.715633 49.720833,44.181053 
	C50.883755,45.524166 51.736427,46.539902 52.621704,47.526367 
	C58.260532,53.809750 58.176495,56.143642 52.235756,62.103436 
	C46.142879,68.215866 40.101810,74.379951 34.407669,81.131134 
M125.310669,27.383892 
	C124.706360,26.287432 124.128540,24.254906 123.493713,24.236938 
	C115.749992,24.017773 107.997887,24.094513 100.381699,24.094513 
	C100.381699,26.610632 100.381699,28.373281 100.381699,30.316885 
	C103.389481,30.471142 106.132301,30.611811 109.332977,30.775963 
	C109.332977,38.715260 109.332977,46.301151 109.332977,53.920918 
	C111.775032,53.920918 113.727737,53.920918 116.139473,53.920918 
	C116.139473,46.173885 116.139473,38.580063 116.139473,30.521908 
	C118.728142,30.521908 120.895180,30.744171 122.975433,30.416122 
	C123.847878,30.278542 124.536484,28.975235 125.310669,27.383892 
M196.938477,45.462582 
	C196.938477,48.233852 196.938477,51.005119 196.938477,53.800285 
	C199.472458,53.800285 201.520599,53.800285 203.636856,53.800285 
	C203.636856,43.826061 203.636856,34.138588 203.636856,24.379028 
	C201.316101,24.379028 199.272949,24.379028 196.938477,24.379028 
	C196.938477,31.266031 196.938477,37.868153 196.938477,45.462582 
M54.112099,77.996025 
	C53.451862,82.046730 54.909187,84.989967 58.989616,85.915222 
	C62.513569,86.714294 65.198311,85.123192 66.490730,81.706406 
	C67.762337,78.344643 66.274261,75.701813 63.451584,74.123833 
	C59.496574,71.912842 56.470966,73.517349 54.112099,77.996025 
M29.153685,23.129463 
	C30.228823,26.499027 32.445415,28.893246 36.033024,28.065046 
	C38.113293,27.584816 40.770626,25.769356 41.406456,23.941805 
	C42.046734,22.101456 41.138817,18.901016 39.729591,17.415968 
	C38.490574,16.110289 35.016102,15.327828 33.613972,16.154556 
	C31.578295,17.354839 30.518438,20.210119 29.153685,23.129463 
M117.424026,63.060551 
	C116.828865,67.941368 116.233704,72.822182 115.638550,77.702995 
	C116.388451,77.962730 117.138351,78.222466 117.888252,78.482201 
	C118.972122,76.459358 120.056000,74.436523 121.142082,72.409561 
	C124.134712,73.856018 124.169960,79.419128 129.487503,77.697433 
	C127.548134,74.895195 125.701454,72.226875 123.804169,69.485435 
	C125.680923,67.417549 127.403915,65.519081 129.126907,63.620617 
	C128.753693,63.185421 128.380493,62.750229 128.007278,62.315037 
	C125.424805,64.197411 122.842331,66.079788 120.574310,67.732956 
	C119.823296,66.199753 119.048805,64.618637 117.424026,63.060551 
M79.788437,73.975494 
	C79.248405,74.681145 78.708366,75.386787 78.168335,76.092438 
	C80.606590,76.770653 83.070122,78.015282 85.473335,77.908066 
	C86.846756,77.846794 89.207588,75.554092 89.173256,74.320374 
	C89.127876,72.689240 87.393166,70.864220 85.967560,69.588547 
	C84.825378,68.566483 83.061462,68.239227 81.573471,67.603615 
	C81.687241,67.228058 81.801010,66.852493 81.914780,66.476936 
	C84.159683,66.351440 86.404587,66.225952 88.649498,66.100456 
	C85.486641,62.517612 81.594170,61.419888 79.390625,64.782433 
	C74.552063,72.165924 84.162491,70.722954 86.945305,75.410278 
	C84.035370,74.849197 82.299782,74.514557 79.788437,73.975494 
M265.684814,62.964401 
	C264.101685,64.162552 261.509583,65.095589 261.112854,66.605484 
	C259.529846,72.629944 267.003479,70.787727 269.158020,74.959763 
	C265.894043,74.959763 263.327271,74.959763 260.760498,74.959763 
	C264.089630,78.688942 268.512695,79.944710 270.848938,76.499825 
	C275.640472,69.434547 266.548828,70.315308 263.678864,66.665321 
	C266.663116,66.403084 268.950806,66.202057 271.238525,66.001030 
	C271.211761,65.410461 271.184998,64.819885 271.158264,64.229317 
	C269.610565,63.807789 268.062866,63.386261 265.684814,62.964401 
M227.487213,64.174080 
	C225.907013,62.640652 224.256561,61.801472 224.078094,64.992508 
	C223.841385,69.225197 224.019730,73.481094 224.019730,77.706161 
	C227.956192,77.706161 231.421188,77.706161 234.886185,77.706161 
	C235.005371,77.143501 235.124557,76.580841 235.243744,76.018173 
	C232.773941,75.487602 230.304123,74.957031 227.577057,74.371185 
	C227.577057,71.308426 227.577057,68.188904 227.487213,64.174080 
M195.210190,75.083351 
	C193.627579,75.003372 192.044983,74.923386 190.167847,74.828522 
	C190.167847,71.360863 190.255447,68.244659 190.101318,65.140450 
	C190.066299,64.435486 189.193420,63.772129 188.706192,63.089626 
	C188.110855,63.667686 187.019547,64.229065 186.999451,64.826485 
	C186.852402,69.197922 186.920166,73.576591 186.920166,77.755402 
	C190.992996,77.755402 194.382355,77.755402 199.207428,77.755402 
	C197.499985,76.297058 196.796432,75.696159 195.210190,75.083351 
M159.106750,73.397369 
	C159.104126,70.589935 159.201584,67.776169 159.024841,64.979736 
	C158.983353,64.323486 158.014862,63.725830 157.472839,63.101223 
	C156.966995,63.758144 156.058716,64.394661 156.024216,65.075485 
	C155.865494,68.205276 155.824310,71.355057 156.012466,74.481323 
	C156.085022,75.686920 156.877457,76.849197 157.341904,78.031219 
	C157.930176,76.806366 158.518448,75.581512 159.106750,73.397369 
z"/>
<path fill="#080808" opacity="1.000000" stroke="none" 
	d="
M254.821503,43.162033 
	C253.349228,40.943893 252.062714,39.036243 250.776199,37.128597 
	C250.455261,37.134468 250.134338,37.140339 249.813400,37.146210 
	C249.813400,39.825436 249.813400,42.504665 249.813400,45.183895 
	C249.813400,47.979477 249.813400,50.775059 249.813400,53.820030 
	C247.460968,53.820030 245.521866,53.820030 243.255066,53.820030 
	C243.255066,44.261375 243.255066,34.521698 243.255066,24.397053 
	C246.395309,24.248789 249.793121,22.652952 252.031387,26.919310 
	C253.627258,29.961163 255.646957,32.780659 257.510529,35.751991 
	C262.847443,32.150700 262.338989,21.205208 272.748444,24.541676 
	C272.748444,34.120907 272.748444,43.859013 272.748444,53.841179 
	C270.604462,53.841179 268.546753,53.841179 266.153076,53.841179 
	C266.153076,48.138100 266.153076,42.539814 266.153076,35.482605 
	C262.927338,40.123363 260.474670,43.651943 257.832367,47.453331 
	C256.693451,45.848526 255.850342,44.660530 254.821503,43.162033 
z"/>
<path fill="#0B0B0B" opacity="1.000000" stroke="none" 
	d="
M189.798309,45.415527 
	C186.537094,51.433861 181.603867,53.967293 175.306152,54.072903 
	C171.489243,54.136913 167.670395,54.084694 163.530640,54.084694 
	C163.530640,44.114605 163.530640,34.393677 163.530640,24.322392 
	C168.539520,24.322392 173.551712,23.750200 178.383148,24.441431 
	C188.460800,25.883240 193.272232,34.861454 189.798309,45.415527 
M183.472763,36.332829 
	C180.574051,30.568521 177.685577,29.380930 170.480759,31.012321 
	C170.480759,36.544899 170.480759,42.081032 170.480759,47.581203 
	C180.542084,48.395683 184.168488,45.448120 183.472763,36.332829 
z"/>
<path fill="#0E0E0E" opacity="1.000000" stroke="none" 
	d="
M227.763702,46.552265 
	C228.608810,41.865623 229.283875,37.506413 229.662827,33.121605 
	C229.904633,30.323692 229.708084,27.487898 229.708084,24.376114 
	C232.031631,24.376114 234.085922,24.376114 236.319855,24.376114 
	C236.319855,31.074575 236.780396,37.728584 236.192139,44.288544 
	C235.587128,51.035187 230.350464,54.768749 223.178085,54.655975 
	C216.130432,54.545162 211.263138,50.976784 210.676636,44.336376 
	C210.097122,37.774929 210.550018,31.122295 210.550018,24.296368 
	C212.708298,24.296368 214.651779,24.296368 217.229233,24.296368 
	C217.229233,29.712320 217.135757,35.127735 217.252655,40.538605 
	C217.402161,47.458496 220.830551,49.531158 227.763702,46.552265 
z"/>
<path fill="#090909" opacity="1.000000" stroke="none" 
	d="
M151.471909,52.688080 
	C150.237808,49.767071 149.826340,46.657066 145.755569,47.338585 
	C141.896240,47.984703 137.083710,45.408779 135.013184,51.608063 
	C134.461060,53.261147 130.904526,53.910770 128.727341,55.021091 
	C128.319977,54.530216 127.912613,54.039345 127.505249,53.548473 
	C131.666260,43.726154 135.827271,33.903835 139.900345,24.289120 
	C144.586029,23.029243 147.060532,24.323936 148.720444,28.924387 
	C151.744415,37.305359 155.576721,45.394672 159.514755,54.646328 
	C156.282181,53.987087 153.987701,53.519154 151.471909,52.688080 
M145.055634,36.924484 
	C144.547363,35.785301 144.039093,34.646122 143.164612,32.686138 
	C141.852325,35.807907 140.821335,38.260551 139.638031,41.075493 
	C142.125198,41.075493 144.044312,41.075493 146.327377,41.075493 
	C145.937439,39.768463 145.626556,38.726475 145.055634,36.924484 
z"/>
<path fill="#0B0B0B" opacity="1.000000" stroke="none" 
	d="
M86.745361,54.479904 
	C82.016312,53.378677 77.682915,52.226421 72.374603,50.814934 
	C74.581398,48.029686 75.759628,46.542610 76.495270,45.614143 
	C80.477379,46.527527 83.875664,47.483429 87.339882,47.969852 
	C88.143715,48.082726 89.520584,46.748123 89.948181,45.777523 
	C90.156868,45.303818 88.961243,43.710274 88.102173,43.362579 
	C85.655785,42.372437 83.027557,41.843975 80.522514,40.983543 
	C76.246887,39.514957 73.873505,36.550560 74.437622,31.927485 
	C75.013741,27.205935 77.957291,24.104815 82.634079,24.081816 
	C87.056786,24.060064 91.485466,25.252201 97.195107,26.101330 
	C95.095688,29.217196 94.040504,30.783251 92.961761,32.384274 
	C90.462181,31.536886 88.215912,30.360439 85.878357,30.136395 
	C84.444550,29.998972 82.870895,31.320570 81.360046,31.986980 
	C82.445488,33.029419 83.390327,34.315811 84.656113,35.045372 
	C85.910179,35.768181 87.502792,35.883606 88.920967,36.345181 
	C95.256538,38.407234 97.428604,40.988178 97.063240,45.955814 
	C96.699585,50.900322 93.712662,53.450996 86.745361,54.479904 
z"/>
<path fill="#0F0F0F" opacity="1.000000" stroke="none" 
	d="
M50.678432,32.678299 
	C47.825905,35.504459 45.193417,38.050972 42.620419,40.656231 
	C38.017849,45.316517 37.972965,48.141151 42.344387,53.040867 
	C43.548931,54.390984 44.743713,55.749813 46.123680,57.308788 
	C44.413773,58.999557 42.899406,60.496971 41.415749,61.964016 
	C29.331200,53.675224 29.185646,42.258133 38.414524,34.125359 
	C44.752563,28.540085 50.175724,21.916628 56.335621,15.411036 
	C58.406593,17.995041 59.815228,19.752628 61.402878,21.733582 
	C58.280548,24.919666 54.602917,28.672394 50.678432,32.678299 
z"/>
<path fill="#050505" opacity="1.000000" stroke="none" 
	d="
M34.222866,80.826279 
	C40.101810,74.379951 46.142879,68.215866 52.235756,62.103436 
	C58.176495,56.143642 58.260532,53.809750 52.621704,47.526367 
	C51.736427,46.539902 50.883755,45.524166 49.720833,44.181053 
	C51.368320,42.715633 52.971363,41.289745 54.581932,39.857159 
	C66.859871,47.965244 66.365860,59.463615 57.903446,67.043358 
	C51.388561,72.878723 45.712753,79.650864 38.942009,86.764893 
	C36.884331,84.208298 35.646000,82.669716 34.222866,80.826279 
z"/>
<path fill="#0A0A0A" opacity="1.000000" stroke="none" 
	d="
M125.309669,27.792896 
	C124.536484,28.975235 123.847878,30.278542 122.975433,30.416122 
	C120.895180,30.744171 118.728142,30.521908 116.139473,30.521908 
	C116.139473,38.580063 116.139473,46.173885 116.139473,53.920918 
	C113.727737,53.920918 111.775032,53.920918 109.332977,53.920918 
	C109.332977,46.301151 109.332977,38.715260 109.332977,30.775963 
	C106.132301,30.611811 103.389481,30.471142 100.381699,30.316885 
	C100.381699,28.373281 100.381699,26.610632 100.381699,24.094513 
	C107.997887,24.094513 115.749992,24.017773 123.493713,24.236938 
	C124.128540,24.254906 124.706360,26.287432 125.309669,27.792896 
z"/>
<path fill="#080808" opacity="1.000000" stroke="none" 
	d="
M196.938477,44.966431 
	C196.938477,37.868153 196.938477,31.266031 196.938477,24.379028 
	C199.272949,24.379028 201.316101,24.379028 203.636856,24.379028 
	C203.636856,34.138588 203.636856,43.826061 203.636856,53.800285 
	C201.520599,53.800285 199.472458,53.800285 196.938477,53.800285 
	C196.938477,51.005119 196.938477,48.233852 196.938477,44.966431 
z"/>
<path fill="#279FF1" opacity="1.000000" stroke="none" 
	d="
M54.235817,77.621368 
	C56.470966,73.517349 59.496574,71.912842 63.451584,74.123833 
	C66.274261,75.701813 67.762337,78.344643 66.490730,81.706406 
	C65.198311,85.123192 62.513569,86.714294 58.989616,85.915222 
	C54.909187,84.989967 53.451862,82.046730 54.235817,77.621368 
z"/>
<path fill="#259EF0" opacity="1.000000" stroke="none" 
	d="
M29.098049,22.744522 
	C30.518438,20.210119 31.578295,17.354839 33.613972,16.154556 
	C35.016102,15.327828 38.490574,16.110289 39.729591,17.415968 
	C41.138817,18.901016 42.046734,22.101456 41.406456,23.941805 
	C40.770626,25.769356 38.113293,27.584816 36.033024,28.065046 
	C32.445415,28.893246 30.228823,26.499027 29.098049,22.744522 
z"/>
<path fill="#212121" opacity="1.000000" stroke="none" 
	d="
M117.849174,63.049038 
	C119.048805,64.618637 119.823296,66.199753 120.574310,67.732956 
	C122.842331,66.079788 125.424805,64.197411 128.007278,62.315037 
	C128.380493,62.750229 128.753693,63.185421 129.126907,63.620617 
	C127.403915,65.519081 125.680923,67.417549 123.804169,69.485435 
	C125.701454,72.226875 127.548134,74.895195 129.487503,77.697433 
	C124.169960,79.419128 124.134712,73.856018 121.142082,72.409561 
	C120.056000,74.436523 118.972122,76.459358 117.888252,78.482201 
	C117.138351,78.222466 116.388451,77.962730 115.638550,77.702995 
	C116.233704,72.822182 116.828865,67.941368 117.849174,63.049038 
z"/>
<path fill="#1A1A1A" opacity="1.000000" stroke="none" 
	d="
M80.176315,74.077698 
	C82.299782,74.514557 84.035370,74.849197 86.945305,75.410278 
	C84.162491,70.722954 74.552063,72.165924 79.390625,64.782433 
	C81.594170,61.419888 85.486641,62.517612 88.649498,66.100456 
	C86.404587,66.225952 84.159683,66.351440 81.914780,66.476936 
	C81.801010,66.852493 81.687241,67.228058 81.573471,67.603615 
	C83.061462,68.239227 84.825378,68.566483 85.967560,69.588547 
	C87.393166,70.864220 89.127876,72.689240 89.173256,74.320374 
	C89.207588,75.554092 86.846756,77.846794 85.473335,77.908066 
	C83.070122,78.015282 80.606590,76.770653 78.168335,76.092438 
	C78.708366,75.386787 79.248405,74.681145 80.176315,74.077698 
z"/>
<path fill="#171717" opacity="1.000000" stroke="none" 
	d="
M266.099976,62.964569 
	C268.062866,63.386261 269.610565,63.807789 271.158264,64.229317 
	C271.184998,64.819885 271.211761,65.410461 271.238525,66.001030 
	C268.950806,66.202057 266.663116,66.403084 263.678864,66.665321 
	C266.548828,70.315308 275.640472,69.434547 270.848938,76.499825 
	C268.512695,79.944710 264.089630,78.688942 260.760498,74.959763 
	C263.327271,74.959763 265.894043,74.959763 269.158020,74.959763 
	C267.003479,70.787727 259.529846,72.629944 261.112854,66.605484 
	C261.509583,65.095589 264.101685,64.162552 266.099976,62.964569 
z"/>
<path fill="#212121" opacity="1.000000" stroke="none" 
	d="
M227.532135,64.621735 
	C227.577057,68.188904 227.577057,71.308426 227.577057,74.371185 
	C230.304123,74.957031 232.773941,75.487602 235.243744,76.018173 
	C235.124557,76.580841 235.005371,77.143501 234.886185,77.706161 
	C231.421188,77.706161 227.956192,77.706161 224.019730,77.706161 
	C224.019730,73.481094 223.841385,69.225197 224.078094,64.992508 
	C224.256561,61.801472 225.907013,62.640652 227.532135,64.621735 
z"/>
<path fill="#0D0D0D" opacity="1.000000" stroke="none" 
	d="
M195.651535,75.089302 
	C196.796432,75.696159 197.499985,76.297058 199.207428,77.755402 
	C194.382355,77.755402 190.992996,77.755402 186.920166,77.755402 
	C186.920166,73.576591 186.852402,69.197922 186.999451,64.826485 
	C187.019547,64.229065 188.110855,63.667686 188.706192,63.089622 
	C189.193420,63.772129 190.066299,64.435486 190.101318,65.140450 
	C190.255447,68.244659 190.167847,71.360863 190.167847,74.828522 
	C192.044983,74.923386 193.627579,75.003372 195.651535,75.089302 
z"/>
<path fill="#030303" opacity="1.000000" stroke="none" 
	d="
M159.106735,73.877014 
	C158.518448,75.581512 157.930176,76.806366 157.341904,78.031219 
	C156.877457,76.849197 156.085022,75.686920 156.012466,74.481323 
	C155.824310,71.355057 155.865494,68.205276 156.024216,65.075485 
	C156.058716,64.394661 156.966995,63.758144 157.472839,63.101219 
	C158.014862,63.725830 158.983353,64.323486 159.024841,64.979736 
	C159.201584,67.776169 159.104126,70.589935 159.106735,73.877014 
z"/>
<path fill="#F2F2F2" opacity="1.000000" stroke="none" 
	d="
M183.619080,36.701950 
	C184.168488,45.448120 180.542084,48.395683 170.480759,47.581203 
	C170.480759,42.081032 170.480759,36.544899 170.480759,31.012321 
	C177.685577,29.380930 180.574051,30.568521 183.619080,36.701950 
z"/>
<path fill="#ECECEC" opacity="1.000000" stroke="none" 
	d="
M145.185669,37.304485 
	C145.626556,38.726475 145.937439,39.768463 146.327377,41.075493 
	C144.044312,41.075493 142.125198,41.075493 139.638031,41.075493 
	C140.821335,38.260551 141.852325,35.807907 143.164612,32.686138 
	C144.039093,34.646122 144.547363,35.785301 145.185669,37.304485 
z"/>
</svg>